<?xml version="1.0" encoding="utf-8"?>
<!-- Generator: Adobe Illustrator 27.0.1, SVG Export Plug-In . SVG Version: 6.00 Build 0)  -->
<svg version="1.1" id="Capa_1" xmlns="http://www.w3.org/2000/svg" xmlns:xlink="http://www.w3.org/1999/xlink" x="0px" y="0px"
	 viewBox="0 0 500 500" style="enable-background:new 0 0 500 500;" xml:space="preserve">
<style type="text/css">
	.st0{fill:#208163;}
	.st1{opacity:0.65;}
	.st2{clip-path:url(#SVGID_00000083049784038123164630000012219278138288314544_);fill:#75BA59;}
	.st3{clip-path:url(#SVGID_00000113347294580895914780000011321242730054448794_);fill:#163B28;}
</style>
<g>
	<polygon class="st0" points="327.57,119.29 327.57,172.43 380.71,172.43 458.29,250 380.86,327.57 327.57,327.57 327.57,380.86 
		250,458.43 172.43,380.86 172.43,327.57 123,331.29 41.71,250 119.14,172.43 172.43,172.43 172.43,119.29 250,41.71 	"/>
	<g class="st1">
		<g>
			<g>
				<g>
					<defs>
						<polygon id="SVGID_1_" points="343,93.14 343.14,157 406.86,157 500,250 407,343.14 343.14,343 343.14,407 250,500 
							156.86,407 156.86,343.14 97.57,347.57 0,250 93,157 157,157 156.86,93.14 250,0 						"/>
					</defs>
					<clipPath id="SVGID_00000090283402892152516050000000775125574879229341_">
						<use xlink:href="#SVGID_1_"  style="overflow:visible;"/>
					</clipPath>
					<polygon style="clip-path:url(#SVGID_00000090283402892152516050000000775125574879229341_);fill:#75BA59;" points="
						505.57,342.86 473,375 506.29,407 507.57,500.29 411.43,500.71 378.14,468.86 345.43,501 249.43,501.43 248.29,408.14 
						280.86,376 247.57,348.57 246.29,250.86 342.29,250.43 375.71,282.29 408.29,250 504.43,249.57 					"/>
				</g>
			</g>
		</g>
		<g>
			<g>
				<g>
					<defs>
						<polygon id="SVGID_00000057142844635012088690000005744710945623192706_" points="343,93.14 343.14,157 406.86,157 500,250 
							407,343.14 343.14,343 343.14,407 250,500 156.86,407 156.86,343.14 97.57,347.57 0,250 93,157 157,157 156.86,93.14 250,0 
													"/>
					</defs>
					<clipPath id="SVGID_00000183227606958299141020000005596266833067910303_">
						<use xlink:href="#SVGID_00000057142844635012088690000005744710945623192706_"  style="overflow:visible;"/>
					</clipPath>
					<polygon style="clip-path:url(#SVGID_00000183227606958299141020000005596266833067910303_);fill:#163B28;" points="
						248.71,93.86 216.86,125.71 247.57,157.71 245.86,250.57 154.71,250 124,218 92.14,249.71 1,249.14 2.71,156.14 34.57,124.43 
						3.86,96.86 5.57,-0.57 96.71,0 127.43,32.14 159.29,0.43 250.43,1 					"/>
				</g>
			</g>
		</g>
	</g>
</g>
</svg>
